<svg width="32" height="40" viewBox="0 0 32 40" fill="none" xmlns="http://www.w3.org/2000/svg">
<path d="M26.0917 21.0334C26.1106 19.5519 26.5015 18.0992 27.228 16.8107C27.9546 15.5221 28.9931 14.4395 30.2469 13.6635C29.4504 12.5183 28.3996 11.5759 27.1779 10.9111C25.9563 10.2462 24.5975 9.87731 23.2094 9.83359C20.2485 9.52073 17.3779 11.6172 15.8691 11.6172C14.331 11.6172 12.0079 9.86465 9.50634 9.91646C7.88823 9.96909 6.31126 10.4428 4.92907 11.2913C3.54688 12.1399 2.40662 13.3344 1.61937 14.7584C-1.79079 20.7019 0.752884 29.4367 4.01953 34.241C5.65391 36.5935 7.56402 39.2213 10.0634 39.1281C12.5091 39.026 13.4226 37.5581 16.3748 37.5581C19.2997 37.5581 20.1567 39.1281 22.7067 39.0688C25.3311 39.026 26.9846 36.7059 28.5617 34.3311C29.736 32.6549 30.6396 30.8023 31.2391 28.8419C29.7143 28.1927 28.4132 27.1061 27.4978 25.7175C26.5825 24.329 26.0934 22.6999 26.0917 21.0334V21.0334Z" fill="black"/>
<path d="M21.2753 6.67437C22.7063 4.94515 23.4112 2.72253 23.2405 0.478516C21.0544 0.709657 19.035 1.76145 17.5847 3.42432C16.8756 4.23668 16.3325 5.18175 15.9865 6.20552C15.6405 7.22929 15.4983 8.31167 15.568 9.39079C16.6615 9.40212 17.7433 9.16354 18.7319 8.69301C19.7205 8.22248 20.5901 7.53227 21.2753 6.67437Z" fill="black"/>
</svg>
