<svg width="72" height="72" viewBox="0 0 72 72" fill="none" xmlns="http://www.w3.org/2000/svg">
<path fill-rule="evenodd" clip-rule="evenodd" d="M38.2552 4.05989C32.587 3.35904 29.0159 4.76073 26.8429 7.10704C19.6703 15.0296 26.235 27.8734 28.1346 36.4664C29.0311 40.58 29.8517 47.3752 25.2321 49.5996C29.2591 49.1578 30.8243 45.3945 31.3106 41.2199C32.4655 31.9261 28.2713 22.358 32.0552 14.1764C34.9424 8.08213 40.5498 6.2386 46.9018 6.92421C42.0998 4.13606 38.6351 3.64852 33.59 7.06133C31.6148 8.58152 29.9887 10.5097 28.822 12.7152C27.6552 14.9207 26.9751 17.352 26.8277 19.8441C26.3115 16.2399 27.216 12.5757 29.3494 9.62897C31.4828 6.6822 34.6773 4.6846 38.2552 4.05989" fill="#6BA330"/>
<path fill-rule="evenodd" clip-rule="evenodd" d="M41.9782 21.1241C45.6937 25.8921 51.0658 29.0803 57.0224 30.0522C56.475 29.7634 55.992 29.3659 55.6028 28.884C55.2135 28.402 54.9262 27.8457 54.7582 27.2489C53.3601 23.5466 53.2386 18.4426 52.0837 14.5118C51.2479 11.617 49.9562 9.14877 47.5248 8.06703L46.8106 7.99085C44.3789 7.66547 41.9057 7.87341 39.5621 8.60028C43.2851 9.36207 44.6528 11.6474 45.8988 14.6946C47.0988 18.2459 48.7051 21.6458 50.6856 24.8264C47.768 21.7792 46.2635 18.3055 44.3032 14.6032C43.0116 12.1959 41.0513 9.68202 38.316 9.72773C37.7468 9.73969 37.187 9.87481 36.6748 10.1239C35.0734 11.3049 33.8019 12.8788 32.9821 14.6946C32.8454 14.9688 32.739 15.2431 32.6174 15.5326C36.9483 13.0644 39.4709 18.214 41.9326 21.1545" fill="#1E6A96"/>
<path fill-rule="evenodd" clip-rule="evenodd" d="M65.2891 52.4182C68.7234 47.8475 69.3008 44.0538 68.3283 40.9609C65.0459 30.7072 50.6704 30.0521 42.2973 27.3858C38.3008 26.1213 32.0248 23.4245 32.4047 18.2444C30.7635 21.9619 33.2404 25.2071 36.5836 27.7515C44.0297 33.404 54.4238 34.4705 59.5753 41.9208C63.4351 47.5123 62.1738 53.2714 58.4204 58.4363C63.2224 55.6634 65.3802 52.8905 64.9395 46.8114C64.6141 44.3538 63.7676 41.9945 62.457 39.8922C61.1465 37.7898 59.4022 35.9931 57.3415 34.6228C60.7255 35.963 63.4551 38.5732 64.9504 41.8988C66.4458 45.2245 66.589 49.0036 65.3498 52.4334" fill="#6BA330"/>
<path fill-rule="evenodd" clip-rule="evenodd" d="M48.6796 47.101C42.7136 47.9488 37.2866 51.0231 33.4835 55.7092C33.9987 55.3719 34.5767 55.1427 35.1826 55.0353C35.7884 54.928 36.4097 54.9447 37.009 55.0845C40.9144 55.7244 45.3973 58.1317 49.3483 59.1372C52.2659 59.8685 55.0468 59.9752 57.1743 58.4516L57.5998 57.8574C59.0819 55.9077 60.1193 53.6558 60.639 51.2603C58.1316 54.1094 55.5331 54.2008 52.2659 53.7438C48.5955 53.0082 44.8531 52.6964 41.112 52.8144C45.2605 51.8545 48.9532 52.2354 53.1321 52.3878C55.8522 52.4944 59.013 52.0374 60.3351 49.6301C60.6083 49.1329 60.7691 48.5816 60.8061 48.0151C60.585 46.0303 59.8575 44.136 58.6939 42.515L58.162 41.7837C58.162 46.7658 52.4179 46.3544 48.6341 47.0553" fill="#1E6A96"/>
<path fill-rule="evenodd" clip-rule="evenodd" d="M9.45845 49.95C11.4036 54.5208 14.0173 56.6233 16.7526 57.2175C25.8703 59.1829 32.6021 48.6398 38.2399 43.5053C40.9296 41.0371 45.6708 37.411 49.3483 39.9858C47.2664 37.1368 43.7561 37.5938 40.3978 39.0108C32.9213 42.1341 27.6178 49.5234 19.7766 50.1786C13.9109 50.6661 10.1271 47.1314 7.87805 42.1189C7.87805 46.9486 9.01776 49.7367 13.7741 52.0983C15.7708 52.9317 17.9235 53.3224 20.0848 53.2435C22.2461 53.1646 24.3649 52.618 26.2957 51.6412C23.82 53.6074 20.6781 54.5304 17.5355 54.2148C14.3928 53.8991 11.496 52.3696 9.45845 49.95" fill="#6BA330"/>
<path fill-rule="evenodd" clip-rule="evenodd" d="M22.588 40.0011C24.8494 34.3926 24.9145 28.1346 22.7703 22.48C22.8022 23.0954 22.7095 23.711 22.498 24.2896C22.2865 24.8683 21.9604 25.398 21.5394 25.8471C19.0473 28.8942 14.7012 31.6062 11.8747 34.5467C9.77765 36.7102 8.30363 39.1174 8.56196 41.677L8.85069 42.3474C9.78991 44.622 11.2105 46.6649 13.0144 48.3351C11.7987 44.7242 13.0144 42.4236 15.0507 39.8183C17.5213 36.9973 19.6579 33.899 21.4179 30.5854C20.187 34.6686 17.9988 37.6853 15.7801 41.2504C14.2605 43.5663 13.1664 46.5373 14.5644 48.8683C14.8551 49.3592 15.2492 49.7804 15.7193 50.1024C17.5501 50.8992 19.5534 51.2138 21.5394 51.0166L22.436 50.9099C18.1507 48.3808 21.3267 43.612 22.6336 40.0011" fill="#1E6A96"/>
</svg>
