<svg width="103" height="67" viewBox="0 0 103 67" fill="none" xmlns="http://www.w3.org/2000/svg">
<path fill-rule="evenodd" clip-rule="evenodd" d="M51.15 0.118786C47.41 -0.341214 45.07 0.578786 43.64 2.11879C38.92 7.31879 43.24 15.7488 44.48 21.3888C45.08 24.0888 45.61 28.5388 42.58 30.0088C45.23 29.7188 46.26 27.2488 46.58 24.4988C47.35 18.4088 44.53 12.1288 47.07 6.75879C48.98 2.75879 52.67 1.5488 56.85 1.9888C53.69 0.168796 51.4 -0.151213 48.09 2.08879C46.7878 3.08428 45.716 4.34933 44.9479 5.79739C44.1799 7.24545 43.7337 8.84233 43.64 10.4788C43.2857 8.11088 43.8705 5.69824 45.2697 3.75538C46.6689 1.81252 48.7718 0.493204 51.13 0.0787924" fill="#6BA330"/>
<path fill-rule="evenodd" clip-rule="evenodd" d="M53.59 11.3188C56.0327 14.4491 59.5696 16.539 63.49 17.1688C63.1308 16.9803 62.8136 16.721 62.5575 16.4064C62.3014 16.0919 62.1117 15.7287 62 15.3388C61.07 12.9088 61 9.55876 60.24 6.97876C59.69 5.07876 58.84 3.45877 57.24 2.74877L56.76 2.69877C55.1632 2.48182 53.5382 2.61839 52 3.09877C54.45 3.59877 55.35 5.04877 56.16 7.09877C56.9538 9.42797 58.0106 11.659 59.31 13.7488C57.39 11.7488 56.4 9.46876 55.11 7.03876C54.27 5.45876 52.97 3.80877 51.17 3.83877C50.7988 3.84774 50.4339 3.93642 50.1 4.09877C49.0462 4.87393 48.2094 5.907 47.67 7.09877C47.5798 7.2775 47.4997 7.46111 47.43 7.64876C50.27 6.02876 51.94 9.40877 53.56 11.3388" fill="#1E6A96"/>
<path fill-rule="evenodd" clip-rule="evenodd" d="M68.92 31.889C71.19 28.889 71.56 26.399 70.92 24.369C68.78 17.679 59.32 17.199 53.8 15.459C51.17 14.629 47.05 12.859 47.3 9.45898C46.22 11.899 47.84 14.029 50.05 15.699C54.95 19.409 61.79 20.109 65.18 24.999C67.72 28.659 66.89 32.449 64.41 35.839C67.58 34.019 69 32.199 68.71 28.209C68.5007 26.5877 67.9461 25.0301 67.0835 23.6414C66.221 22.2527 65.0706 21.0652 63.71 20.159C65.9371 21.0479 67.7286 22.7722 68.702 24.9638C69.6754 27.1553 69.7536 29.6405 68.92 31.889" fill="#6BA330"/>
<path fill-rule="evenodd" clip-rule="evenodd" d="M58 28.3682C54.075 28.9275 50.5046 30.9448 48 34.0182C48.3425 33.8006 48.7256 33.6547 49.126 33.5894C49.5265 33.5241 49.9361 33.5407 50.33 33.6382C52.9 34.0582 55.85 35.6382 58.45 36.2982C60.38 36.7782 62.2 36.8482 63.61 35.8482L63.89 35.4582C64.8609 34.1759 65.5432 32.6988 65.89 31.1282C64.23 32.9982 62.53 33.0582 60.37 32.7582C57.9554 32.27 55.4921 32.0653 53.03 32.1482C55.76 31.5182 58.2 31.7682 60.94 31.8682C62.74 31.9282 64.81 31.6282 65.69 30.0582C65.8653 29.73 65.9708 29.3691 66 28.9982C65.8545 27.6954 65.3757 26.4521 64.61 25.3882L64.26 24.9082C64.26 28.1782 60.47 27.9082 57.99 28.3682" fill="#1E6A96"/>
<path fill-rule="evenodd" clip-rule="evenodd" d="M32.34 31.4286C33.81 34.8886 35.78 36.4286 37.87 36.9086C44.73 38.3986 49.87 30.4386 54.14 26.5386C56.14 24.6786 59.77 21.9886 62.55 23.8786C60.98 21.7286 58.32 22.0686 55.77 23.1486C50.11 25.5386 46.08 31.1486 40.16 31.5986C35.71 31.9686 32.85 29.3586 31.16 25.5186C31.16 29.1686 32.02 31.3086 35.62 33.0486C37.133 33.6786 38.7642 33.9744 40.4021 33.9157C42.04 33.857 43.6459 33.4453 45.11 32.7086C43.2348 34.1978 40.8528 34.8972 38.4702 34.6581C36.0876 34.4191 33.892 33.2606 32.35 31.4286" fill="#6BA330"/>
<path fill-rule="evenodd" clip-rule="evenodd" d="M40.83 23.709C42.3181 20.0278 42.361 15.9204 40.95 12.209C40.9656 12.6158 40.8984 13.0214 40.7522 13.4014C40.6061 13.7813 40.3842 14.1275 40.1 14.419C38.46 16.419 35.61 18.199 33.75 20.119C32.37 21.549 31.4 23.119 31.56 24.809L31.76 25.249C32.3706 26.7434 33.3026 28.0852 34.49 29.179C33.69 26.799 34.49 25.299 35.84 23.579C37.4647 21.7302 38.8706 19.7001 40.03 17.529C39.22 20.209 37.78 22.189 36.32 24.529C35.32 26.049 34.59 27.999 35.52 29.529C35.7114 29.8483 35.9709 30.1215 36.28 30.329C37.4791 30.8593 38.7953 31.0695 40.1 30.939L40.69 30.869C37.87 29.209 39.97 26.079 40.83 23.709" fill="#1E6A96"/>
<path fill-rule="evenodd" clip-rule="evenodd" d="M97.17 62.0986C96.2398 62.0934 95.3232 61.8746 94.491 61.4589C93.6589 61.0433 92.9334 60.4419 92.3705 59.7013C91.8077 58.9606 91.4227 58.1005 91.2451 57.1874C91.0675 56.2743 91.1022 55.3326 91.3464 54.4351C91.5906 53.5375 92.0378 52.708 92.6536 52.0108C93.2693 51.3135 94.0371 50.7671 94.8976 50.4137C95.758 50.0604 96.6882 49.9095 97.6163 49.9727C98.5443 50.036 99.4454 50.3117 100.25 50.7786C101.131 51.2928 101.83 52.0688 102.25 52.9986L101 53.7086C100.686 53.0145 100.161 52.4371 99.5 52.0586C98.5354 51.5084 97.4043 51.3256 96.3155 51.5442C95.2267 51.7627 94.2538 52.3677 93.5762 53.2476C92.8986 54.1274 92.5623 55.2227 92.6291 56.3312C92.696 57.4397 93.1616 58.4866 93.94 59.2786C94.4275 59.7822 95.0261 60.1648 95.688 60.3955C96.3498 60.6263 97.0566 60.6989 97.7515 60.6075C98.4465 60.5162 99.1104 60.2634 99.6901 59.8694C100.27 59.4754 100.749 58.9511 101.09 58.3386L102.36 59.0886C101.887 60.0066 101.157 60.7675 100.26 61.2786C99.326 61.8246 98.2618 62.1079 97.18 62.0986M4.29 61.8186L0 45.6086H3.34L6.46 57.6086L9.84 45.6086H12.61L16.01 57.6086L19.08 45.6086H22.16L17.92 61.8186H14.26L11.18 51.0586L8.13 61.8186H4.29ZM30.66 50.2386V51.6086C30.2151 51.0487 29.6448 50.6013 28.9951 50.3025C28.3454 50.0037 27.6346 49.8619 26.92 49.8886C26.1653 49.8794 25.4175 50.0327 24.7273 50.3381C24.0371 50.6435 23.4207 51.0938 22.92 51.6586C21.8565 52.8541 21.2691 54.3985 21.2691 55.9986C21.2691 57.5986 21.8565 59.1431 22.92 60.3386C23.4207 60.9033 24.0371 61.3537 24.7273 61.6591C25.4175 61.9645 26.1653 62.1178 26.92 62.1086C27.6387 62.1451 28.3559 62.0111 29.0129 61.7173C29.6699 61.4236 30.248 60.9786 30.7 60.4186V61.7886H33.7V50.2386H30.66ZM25.15 58.3786C24.5709 57.7328 24.2507 56.896 24.2507 56.0286C24.2507 55.1612 24.5709 54.3244 25.15 53.6786C25.4473 53.3751 25.8043 53.1367 26.1985 52.9783C26.5927 52.82 27.0154 52.7451 27.44 52.7586C27.8659 52.7462 28.2899 52.8214 28.6855 52.9797C29.0812 53.138 29.4401 53.3758 29.74 53.6786C30.3318 54.3181 30.6605 55.1573 30.6605 56.0286C30.6605 56.8999 30.3318 57.7391 29.74 58.3786C29.4396 58.68 29.0804 58.9163 28.6847 59.0729C28.289 59.2295 27.8653 59.3029 27.44 59.2886C27.0161 59.3033 26.5938 59.23 26.1997 59.0734C25.8056 58.9168 25.4481 58.6802 25.15 58.3786M41.84 53.1086H39.46V57.8886C39.4466 58.048 39.4663 58.2085 39.518 58.36C39.5696 58.5114 39.652 58.6505 39.76 58.7686C40.0084 58.971 40.3196 59.0806 40.64 59.0786C41.1163 59.1032 41.5936 59.1032 42.07 59.0786V61.7886C40.07 62.0186 38.57 61.7886 37.73 61.2086C37.271 60.7975 36.9172 60.2825 36.698 59.7066C36.4788 59.1308 36.4006 58.5108 36.47 57.8986V53.0786H34.47V50.2086H36.47V47.8886L39.47 46.9886V50.2286H43.87V47.8886L46.87 46.9886V50.2286H49.49V53.0986H46.87V57.8886C46.8566 58.048 46.8764 58.2085 46.928 58.36C46.9796 58.5114 47.062 58.6505 47.17 58.7686C47.4197 58.9688 47.73 59.0781 48.05 59.0786C48.5297 59.1032 49.0103 59.1032 49.49 59.0786V61.7886C47.49 62.0186 45.99 61.7886 45.15 61.2086C44.691 60.7975 44.3372 60.2825 44.118 59.7066C43.8988 59.1308 43.8206 58.5108 43.89 57.8986V53.0786H41.89L41.84 53.1086ZM52.92 60.2886H60.32V61.8186H51.32V45.6086H52.92V60.2886ZM70.64 60.3486C71.7735 59.1964 72.4087 57.6449 72.4087 56.0286C72.4087 54.4123 71.7735 52.8608 70.64 51.7086C69.4817 50.5869 67.9324 49.9597 66.32 49.9597C64.7076 49.9597 63.1583 50.5869 62 51.7086C60.8665 52.8608 60.2313 54.4123 60.2313 56.0286C60.2313 57.6449 60.8665 59.1964 62 60.3486C63.1583 61.4703 64.7076 62.0974 66.32 62.0974C67.9324 62.0974 69.4817 61.4703 70.64 60.3486M63.08 59.2786C62.4467 58.6391 62.0168 57.8265 61.8444 56.9432C61.672 56.0598 61.7649 55.1453 62.1113 54.3146C62.4578 53.484 63.0423 52.7744 63.7912 52.2753C64.5401 51.7762 65.42 51.5099 66.32 51.5099C67.22 51.5099 68.0999 51.7762 68.8488 52.2753C69.5977 52.7744 70.1822 53.484 70.5286 54.3146C70.8751 55.1453 70.9679 56.0598 70.7956 56.9432C70.6232 57.8265 70.1933 58.6391 69.56 59.2786C68.6971 60.1311 67.533 60.6092 66.32 60.6092C65.107 60.6092 63.9429 60.1311 63.08 59.2786M84.01 50.2786H85.54V61.3886C85.5754 62.1333 85.4387 62.8762 85.1404 63.5596C84.8421 64.2429 84.3903 64.8482 83.82 65.3286C82.6772 66.29 81.2231 66.802 79.73 66.7686C77.01 66.7686 75.18 65.8186 74.24 63.9386L75.58 63.1786C76.28 64.5786 77.66 65.2886 79.73 65.2886C80.8964 65.3538 82.0418 64.9589 82.92 64.1886C83.3061 63.8268 83.6089 63.3855 83.8074 62.8951C84.006 62.4047 84.0956 61.877 84.07 61.3486V59.5486C83.5942 60.3578 82.9074 61.0225 82.0831 61.4716C81.2588 61.9208 80.3279 62.1375 79.39 62.0986C78.6035 62.1106 77.8229 61.9605 77.0968 61.6577C76.3708 61.3549 75.7149 60.9059 75.17 60.3386C74.0472 59.1848 73.419 57.6385 73.419 56.0286C73.419 54.4187 74.0472 52.8723 75.17 51.7186C75.7149 51.1512 76.3708 50.7022 77.0968 50.3994C77.8229 50.0966 78.6035 49.9466 79.39 49.9586C80.3279 49.9197 81.2588 50.1364 82.0831 50.5855C82.9074 51.0347 83.5942 51.6994 84.07 52.5086L84.01 50.2786ZM76.21 59.2786C77.0729 60.1311 78.237 60.6092 79.45 60.6092C80.663 60.6092 81.8271 60.1311 82.69 59.2786C83.3233 58.6391 83.7532 57.8265 83.9256 56.9432C84.098 56.0598 84.0051 55.1453 83.6586 54.3146C83.3122 53.484 82.7277 52.7744 81.9788 52.2753C81.2299 51.7762 80.35 51.5099 79.45 51.5099C78.55 51.5099 77.6701 51.7762 76.9212 52.2753C76.1723 52.7744 75.5878 53.484 75.2413 54.3146C74.8949 55.1453 74.802 56.0598 74.9744 56.9432C75.1468 57.8265 75.5767 58.6391 76.21 59.2786M89.43 47.4586C89.3267 47.5632 89.2037 47.6462 89.0681 47.7029C88.9325 47.7596 88.787 47.7888 88.64 47.7888C88.493 47.7888 88.3475 47.7596 88.2119 47.7029C88.0763 47.6462 87.9532 47.5632 87.85 47.4586C87.7468 47.3548 87.6653 47.2315 87.6104 47.0958C87.5554 46.9602 87.5281 46.8149 87.53 46.6686C87.53 46.3742 87.6469 46.0919 87.8551 45.8837C88.0633 45.6755 88.3456 45.5586 88.64 45.5586C88.9344 45.5586 89.2167 45.6755 89.4249 45.8837C89.633 46.0919 89.75 46.3742 89.75 46.6686C89.7519 46.8149 89.7246 46.9602 89.6696 47.0958C89.6147 47.2315 89.5332 47.3548 89.43 47.4586M87.92 50.2386H89.44V61.8186H87.92V50.2386Z" fill="#121309"/>
<path fill-rule="evenodd" clip-rule="evenodd" d="M97.17 62.0986C96.2398 62.0934 95.3232 61.8746 94.491 61.4589C93.6589 61.0433 92.9334 60.4419 92.3705 59.7013C91.8077 58.9606 91.4227 58.1005 91.2451 57.1874C91.0675 56.2743 91.1022 55.3326 91.3464 54.4351C91.5906 53.5375 92.0378 52.708 92.6536 52.0108C93.2693 51.3135 94.0371 50.7671 94.8976 50.4137C95.758 50.0604 96.6882 49.9095 97.6163 49.9727C98.5443 50.036 99.4454 50.3117 100.25 50.7786C101.131 51.2928 101.83 52.0688 102.25 52.9986L101 53.7086C100.686 53.0145 100.161 52.4371 99.5 52.0586C98.5354 51.5084 97.4043 51.3256 96.3155 51.5442C95.2267 51.7627 94.2538 52.3677 93.5762 53.2476C92.8986 54.1274 92.5623 55.2227 92.6291 56.3312C92.696 57.4397 93.1616 58.4866 93.94 59.2786C94.4275 59.7822 95.0261 60.1648 95.688 60.3955C96.3498 60.6263 97.0566 60.6989 97.7515 60.6075C98.4465 60.5162 99.1104 60.2634 99.6901 59.8694C100.27 59.4754 100.749 58.9511 101.09 58.3386L102.36 59.0886C101.887 60.0066 101.157 60.7675 100.26 61.2786C99.326 61.8246 98.2618 62.1079 97.18 62.0986M4.29 61.8186L0 45.6086H3.34L6.46 57.6086L9.84 45.6086H12.61L16.01 57.6086L19.08 45.6086H22.16L17.92 61.8186H14.26L11.18 51.0586L8.13 61.8186H4.29ZM30.66 50.2386V51.6086C30.2151 51.0487 29.6448 50.6013 28.9951 50.3025C28.3454 50.0037 27.6346 49.8619 26.92 49.8886C26.1653 49.8794 25.4175 50.0327 24.7273 50.3381C24.0371 50.6435 23.4207 51.0938 22.92 51.6586C21.8565 52.8541 21.2691 54.3985 21.2691 55.9986C21.2691 57.5986 21.8565 59.1431 22.92 60.3386C23.4207 60.9033 24.0371 61.3537 24.7273 61.6591C25.4175 61.9645 26.1653 62.1178 26.92 62.1086C27.6387 62.1451 28.3559 62.0111 29.0129 61.7173C29.6699 61.4236 30.248 60.9786 30.7 60.4186V61.7886H33.7V50.2386H30.66ZM25.15 58.3786C24.5709 57.7328 24.2507 56.896 24.2507 56.0286C24.2507 55.1612 24.5709 54.3244 25.15 53.6786C25.4473 53.3751 25.8043 53.1367 26.1985 52.9783C26.5927 52.82 27.0154 52.7451 27.44 52.7586C27.8659 52.7462 28.2899 52.8214 28.6855 52.9797C29.0812 53.138 29.4401 53.3758 29.74 53.6786C30.3318 54.3181 30.6605 55.1573 30.6605 56.0286C30.6605 56.8999 30.3318 57.7391 29.74 58.3786C29.4396 58.68 29.0804 58.9163 28.6847 59.0729C28.289 59.2295 27.8653 59.3029 27.44 59.2886C27.0161 59.3033 26.5938 59.23 26.1997 59.0734C25.8056 58.9168 25.4481 58.6802 25.15 58.3786M41.84 53.1086H39.46V57.8886C39.4466 58.048 39.4663 58.2085 39.518 58.36C39.5696 58.5114 39.652 58.6505 39.76 58.7686C40.0084 58.971 40.3196 59.0806 40.64 59.0786C41.1163 59.1032 41.5936 59.1032 42.07 59.0786V61.7886C40.07 62.0186 38.57 61.7886 37.73 61.2086C37.271 60.7975 36.9172 60.2825 36.698 59.7066C36.4788 59.1308 36.4006 58.5108 36.47 57.8986V53.0786H34.47V50.2086H36.47V47.8886L39.47 46.9886V50.2286H43.87V47.8886L46.87 46.9886V50.2286H49.49V53.0986H46.87V57.8886C46.8566 58.048 46.8764 58.2085 46.928 58.36C46.9796 58.5114 47.062 58.6505 47.17 58.7686C47.4197 58.9688 47.73 59.0781 48.05 59.0786C48.5297 59.1032 49.0103 59.1032 49.49 59.0786V61.7886C47.49 62.0186 45.99 61.7886 45.15 61.2086C44.691 60.7975 44.3372 60.2825 44.118 59.7066C43.8988 59.1308 43.8206 58.5108 43.89 57.8986V53.0786H41.89L41.84 53.1086ZM52.92 60.2886H60.32V61.8186H51.32V45.6086H52.92V60.2886ZM70.64 60.3486C71.7735 59.1964 72.4087 57.6449 72.4087 56.0286C72.4087 54.4123 71.7735 52.8608 70.64 51.7086C69.4817 50.5869 67.9324 49.9597 66.32 49.9597C64.7076 49.9597 63.1583 50.5869 62 51.7086C60.8665 52.8608 60.2313 54.4123 60.2313 56.0286C60.2313 57.6449 60.8665 59.1964 62 60.3486C63.1583 61.4703 64.7076 62.0974 66.32 62.0974C67.9324 62.0974 69.4817 61.4703 70.64 60.3486M63.08 59.2786C62.4467 58.6391 62.0168 57.8265 61.8444 56.9432C61.672 56.0598 61.7649 55.1453 62.1113 54.3146C62.4578 53.484 63.0423 52.7744 63.7912 52.2753C64.5401 51.7762 65.42 51.5099 66.32 51.5099C67.22 51.5099 68.0999 51.7762 68.8488 52.2753C69.5977 52.7744 70.1822 53.484 70.5286 54.3146C70.8751 55.1453 70.9679 56.0598 70.7956 56.9432C70.6232 57.8265 70.1933 58.6391 69.56 59.2786C68.6971 60.1311 67.533 60.6092 66.32 60.6092C65.107 60.6092 63.9429 60.1311 63.08 59.2786M84.01 50.2786H85.54V61.3886C85.5754 62.1333 85.4387 62.8762 85.1404 63.5596C84.8421 64.2429 84.3903 64.8482 83.82 65.3286C82.6772 66.29 81.2231 66.802 79.73 66.7686C77.01 66.7686 75.18 65.8186 74.24 63.9386L75.58 63.1786C76.28 64.5786 77.66 65.2886 79.73 65.2886C80.8964 65.3538 82.0418 64.9589 82.92 64.1886C83.3061 63.8268 83.6089 63.3855 83.8074 62.8951C84.006 62.4047 84.0956 61.877 84.07 61.3486V59.5486C83.5942 60.3578 82.9074 61.0225 82.0831 61.4716C81.2588 61.9208 80.3279 62.1375 79.39 62.0986C78.6035 62.1106 77.8229 61.9605 77.0968 61.6577C76.3708 61.3549 75.7149 60.9059 75.17 60.3386C74.0472 59.1848 73.419 57.6385 73.419 56.0286C73.419 54.4187 74.0472 52.8723 75.17 51.7186C75.7149 51.1512 76.3708 50.7022 77.0968 50.3994C77.8229 50.0966 78.6035 49.9466 79.39 49.9586C80.3279 49.9197 81.2588 50.1364 82.0831 50.5855C82.9074 51.0347 83.5942 51.6994 84.07 52.5086L84.01 50.2786ZM76.21 59.2786C77.0729 60.1311 78.237 60.6092 79.45 60.6092C80.663 60.6092 81.8271 60.1311 82.69 59.2786C83.3233 58.6391 83.7532 57.8265 83.9256 56.9432C84.098 56.0598 84.0051 55.1453 83.6586 54.3146C83.3122 53.484 82.7277 52.7744 81.9788 52.2753C81.2299 51.7762 80.35 51.5099 79.45 51.5099C78.55 51.5099 77.6701 51.7762 76.9212 52.2753C76.1723 52.7744 75.5878 53.484 75.2413 54.3146C74.8949 55.1453 74.802 56.0598 74.9744 56.9432C75.1468 57.8265 75.5767 58.6391 76.21 59.2786M89.43 47.4586C89.3267 47.5632 89.2037 47.6462 89.0681 47.7029C88.9325 47.7596 88.787 47.7888 88.64 47.7888C88.493 47.7888 88.3475 47.7596 88.2119 47.7029C88.0763 47.6462 87.9532 47.5632 87.85 47.4586C87.7468 47.3548 87.6653 47.2315 87.6104 47.0958C87.5554 46.9602 87.5281 46.8149 87.53 46.6686C87.53 46.3742 87.6469 46.0919 87.8551 45.8837C88.0633 45.6755 88.3456 45.5586 88.64 45.5586C88.9344 45.5586 89.2167 45.6755 89.4249 45.8837C89.633 46.0919 89.75 46.3742 89.75 46.6686C89.7519 46.8149 89.7246 46.9602 89.6696 47.0958C89.6147 47.2315 89.5332 47.3548 89.43 47.4586M87.92 50.2386H89.44V61.8186H87.92V50.2386Z" fill="black" fill-opacity="0.2"/>
</svg>
